<?xml version="1.0" encoding="UTF-8" standalone="no"?>
<!DOCTYPE svg PUBLIC "-//W3C//DTD SVG 1.1//EN"
 "http://www.w3.org/Graphics/SVG/1.1/DTD/svg11.dtd">
<!-- Generated by graphviz version 2.40.1 (20161225.0304)
 -->
<!-- Title: %3 Pages: 1 -->
<svg width="2657pt" height="476pt"
 viewBox="0.00 0.00 2656.78 476.00" xmlns="http://www.w3.org/2000/svg" xmlns:xlink="http://www.w3.org/1999/xlink">
<g id="graph0" class="graph" transform="scale(1 1) rotate(0) translate(4 472)">
<title>%3</title>
<polygon fill="#ffffff" stroke="transparent" points="-4,4 -4,-472 2652.782,-472 2652.782,4 -4,4"/>
<!-- [None, None, None, None, None, None] -->
<g id="node1" class="node">
<title>[None, None, None, None, None, None]</title>
<ellipse fill="none" stroke="#000000" cx="1443.7924" cy="-450" rx="163.5712" ry="18"/>
<text text-anchor="middle" x="1443.7924" y="-446.3" font-family="Times,serif" font-size="14.00" fill="#000000">[None, None, None, None, None, None]</text>
</g>
<!-- [1, None, None, None, None, None] -->
<g id="node2" class="node">
<title>[1, None, None, None, None, None]</title>
<ellipse fill="none" stroke="#000000" cx="1443.7924" cy="-378" rx="148.3739" ry="18"/>
<text text-anchor="middle" x="1443.7924" y="-374.3" font-family="Times,serif" font-size="14.00" fill="#000000">[1, None, None, None, None, None]</text>
</g>
<!-- [None, None, None, None, None, None]&#45;&gt;[1, None, None, None, None, None] -->
<g id="edge1" class="edge">
<title>[None, None, None, None, None, None]&#45;&gt;[1, None, None, None, None, None]</title>
<path fill="none" stroke="#000000" d="M1443.7924,-431.8314C1443.7924,-424.131 1443.7924,-414.9743 1443.7924,-406.4166"/>
<polygon fill="#000000" stroke="#000000" points="1447.2925,-406.4132 1443.7924,-396.4133 1440.2925,-406.4133 1447.2925,-406.4132"/>
</g>
<!-- [1, 3, None, None, None, None] -->
<g id="node3" class="node">
<title>[1, 3, None, None, None, None]</title>
<ellipse fill="none" stroke="#000000" cx="750.7924" cy="-306" rx="132.6765" ry="18"/>
<text text-anchor="middle" x="750.7924" y="-302.3" font-family="Times,serif" font-size="14.00" fill="#000000">[1, 3, None, None, None, None]</text>
</g>
<!-- [1, None, None, None, None, None]&#45;&gt;[1, 3, None, None, None, None] -->
<g id="edge2" class="edge">
<title>[1, None, None, None, None, None]&#45;&gt;[1, 3, None, None, None, None]</title>
<path fill="none" stroke="#000000" d="M1330.9076,-366.2717C1203.0106,-352.9837 995.6286,-331.4375 866.554,-318.0272"/>
<polygon fill="#000000" stroke="#000000" points="866.5511,-314.5081 856.2429,-316.9559 865.8276,-321.4706 866.5511,-314.5081"/>
</g>
<!-- [1, 4, None, None, None, None] -->
<g id="node11" class="node">
<title>[1, 4, None, None, None, None]</title>
<ellipse fill="none" stroke="#000000" cx="1238.7924" cy="-306" rx="132.6765" ry="18"/>
<text text-anchor="middle" x="1238.7924" y="-302.3" font-family="Times,serif" font-size="14.00" fill="#000000">[1, 4, None, None, None, None]</text>
</g>
<!-- [1, None, None, None, None, None]&#45;&gt;[1, 4, None, None, None, None] -->
<g id="edge10" class="edge">
<title>[1, None, None, None, None, None]&#45;&gt;[1, 4, None, None, None, None]</title>
<path fill="none" stroke="#000000" d="M1395.2102,-360.937C1365.4879,-350.4979 1327.3098,-337.089 1296.1125,-326.1319"/>
<polygon fill="#000000" stroke="#000000" points="1297.2666,-322.8278 1286.6718,-322.8162 1294.947,-329.4323 1297.2666,-322.8278"/>
</g>
<!-- [1, 5, None, None, None, None] -->
<g id="node20" class="node">
<title>[1, 5, None, None, None, None]</title>
<ellipse fill="none" stroke="#000000" cx="1553.7924" cy="-306" rx="132.6765" ry="18"/>
<text text-anchor="middle" x="1553.7924" y="-302.3" font-family="Times,serif" font-size="14.00" fill="#000000">[1, 5, None, None, None, None]</text>
</g>
<!-- [1, None, None, None, None, None]&#45;&gt;[1, 5, None, None, None, None] -->
<g id="edge19" class="edge">
<title>[1, None, None, None, None, None]&#45;&gt;[1, 5, None, None, None, None]</title>
<path fill="none" stroke="#000000" d="M1470.9834,-360.2022C1485.1302,-350.9425 1502.6081,-339.5025 1517.8554,-329.5224"/>
<polygon fill="#000000" stroke="#000000" points="1520.0827,-332.2476 1526.5329,-323.8425 1516.2491,-326.3907 1520.0827,-332.2476"/>
</g>
<!-- [1, 6, None, None, None, None] -->
<g id="node28" class="node">
<title>[1, 6, None, None, None, None]</title>
<ellipse fill="none" stroke="#000000" cx="2153.7924" cy="-306" rx="132.6765" ry="18"/>
<text text-anchor="middle" x="2153.7924" y="-302.3" font-family="Times,serif" font-size="14.00" fill="#000000">[1, 6, None, None, None, None]</text>
</g>
<!-- [1, None, None, None, None, None]&#45;&gt;[1, 6, None, None, None, None] -->
<g id="edge27" class="edge">
<title>[1, None, None, None, None, None]&#45;&gt;[1, 6, None, None, None, None]</title>
<path fill="none" stroke="#000000" d="M1557.8662,-366.432C1689.479,-353.0853 1904.7438,-331.2556 2037.3504,-317.8082"/>
<polygon fill="#000000" stroke="#000000" points="2037.9474,-321.2657 2047.5432,-316.7746 2037.2411,-314.3014 2037.9474,-321.2657"/>
</g>
<!-- [1, 3, 6, None, None, None] -->
<g id="node4" class="node">
<title>[1, 3, 6, None, None, None]</title>
<ellipse fill="none" stroke="#000000" cx="480.7924" cy="-234" rx="116.9792" ry="18"/>
<text text-anchor="middle" x="480.7924" y="-230.3" font-family="Times,serif" font-size="14.00" fill="#000000">[1, 3, 6, None, None, None]</text>
</g>
<!-- [1, 3, None, None, None, None]&#45;&gt;[1, 3, 6, None, None, None] -->
<g id="edge3" class="edge">
<title>[1, 3, None, None, None, None]&#45;&gt;[1, 3, 6, None, None, None]</title>
<path fill="none" stroke="#000000" d="M690.5352,-289.9314C648.7205,-278.7808 592.936,-263.905 549.4093,-252.2978"/>
<polygon fill="#000000" stroke="#000000" points="550.0375,-248.8431 539.4733,-249.6482 548.2338,-255.6068 550.0375,-248.8431"/>
</g>
<!-- [1, 3, 6, 2, None, None] -->
<g id="node5" class="node">
<title>[1, 3, 6, 2, None, None]</title>
<ellipse fill="none" stroke="#000000" cx="259.7924" cy="-162" rx="101.2821" ry="18"/>
<text text-anchor="middle" x="259.7924" y="-158.3" font-family="Times,serif" font-size="14.00" fill="#000000">[1, 3, 6, 2, None, None]</text>
</g>
<!-- [1, 3, 6, None, None, None]&#45;&gt;[1, 3, 6, 2, None, None] -->
<g id="edge4" class="edge">
<title>[1, 3, 6, None, None, None]&#45;&gt;[1, 3, 6, 2, None, None]</title>
<path fill="none" stroke="#000000" d="M430.6441,-217.6621C397.235,-206.7777 353.2086,-192.4342 318.2157,-181.0338"/>
<polygon fill="#000000" stroke="#000000" points="319.1941,-177.6716 308.6017,-177.9017 317.0257,-184.3273 319.1941,-177.6716"/>
</g>
<!-- [1, 3, 6, 4, None, None] -->
<g id="node8" class="node">
<title>[1, 3, 6, 4, None, None]</title>
<ellipse fill="none" stroke="#000000" cx="480.7924" cy="-162" rx="101.2821" ry="18"/>
<text text-anchor="middle" x="480.7924" y="-158.3" font-family="Times,serif" font-size="14.00" fill="#000000">[1, 3, 6, 4, None, None]</text>
</g>
<!-- [1, 3, 6, None, None, None]&#45;&gt;[1, 3, 6, 4, None, None] -->
<g id="edge7" class="edge">
<title>[1, 3, 6, None, None, None]&#45;&gt;[1, 3, 6, 4, None, None]</title>
<path fill="none" stroke="#000000" d="M480.7924,-215.8314C480.7924,-208.131 480.7924,-198.9743 480.7924,-190.4166"/>
<polygon fill="#000000" stroke="#000000" points="484.2925,-190.4132 480.7924,-180.4133 477.2925,-190.4133 484.2925,-190.4132"/>
</g>
<!-- [1, 3, 6, 2, 4, None] -->
<g id="node6" class="node">
<title>[1, 3, 6, 2, 4, None]</title>
<ellipse fill="none" stroke="#000000" cx="85.7924" cy="-90" rx="85.5853" ry="18"/>
<text text-anchor="middle" x="85.7924" y="-86.3" font-family="Times,serif" font-size="14.00" fill="#000000">[1, 3, 6, 2, 4, None]</text>
</g>
<!-- [1, 3, 6, 2, None, None]&#45;&gt;[1, 3, 6, 2, 4, None] -->
<g id="edge5" class="edge">
<title>[1, 3, 6, 2, None, None]&#45;&gt;[1, 3, 6, 2, 4, None]</title>
<path fill="none" stroke="#000000" d="M219.4359,-145.3008C194.0427,-134.7932 161.1226,-121.1711 134.3099,-110.0762"/>
<polygon fill="#000000" stroke="#000000" points="135.3115,-106.7029 124.733,-106.1134 132.635,-113.171 135.3115,-106.7029"/>
</g>
<!-- [1, 3, 6, 2, 5, None] -->
<g id="node7" class="node">
<title>[1, 3, 6, 2, 5, None]</title>
<ellipse fill="none" stroke="#000000" cx="275.7924" cy="-90" rx="85.5853" ry="18"/>
<text text-anchor="middle" x="275.7924" y="-86.3" font-family="Times,serif" font-size="14.00" fill="#000000">[1, 3, 6, 2, 5, None]</text>
</g>
<!-- [1, 3, 6, 2, None, None]&#45;&gt;[1, 3, 6, 2, 5, None] -->
<g id="edge6" class="edge">
<title>[1, 3, 6, 2, None, None]&#45;&gt;[1, 3, 6, 2, 5, None]</title>
<path fill="none" stroke="#000000" d="M263.8299,-143.8314C265.5411,-136.131 267.5759,-126.9743 269.4776,-118.4166"/>
<polygon fill="#000000" stroke="#000000" points="272.9478,-118.9344 271.7006,-108.4133 266.1145,-117.4159 272.9478,-118.9344"/>
</g>
<!-- [1, 3, 6, 4, 2, None] -->
<g id="node9" class="node">
<title>[1, 3, 6, 4, 2, None]</title>
<ellipse fill="none" stroke="#000000" cx="480.7924" cy="-90" rx="85.5853" ry="18"/>
<text text-anchor="middle" x="480.7924" y="-86.3" font-family="Times,serif" font-size="14.00" fill="#000000">[1, 3, 6, 4, 2, None]</text>
</g>
<!-- [1, 3, 6, 4, None, None]&#45;&gt;[1, 3, 6, 4, 2, None] -->
<g id="edge8" class="edge">
<title>[1, 3, 6, 4, None, None]&#45;&gt;[1, 3, 6, 4, 2, None]</title>
<path fill="none" stroke="#000000" d="M480.7924,-143.8314C480.7924,-136.131 480.7924,-126.9743 480.7924,-118.4166"/>
<polygon fill="#000000" stroke="#000000" points="484.2925,-118.4132 480.7924,-108.4133 477.2925,-118.4133 484.2925,-118.4132"/>
</g>
<!-- [1, 3, 6, 4, 2, 5] -->
<g id="node10" class="node">
<title>[1, 3, 6, 4, 2, 5]</title>
<polygon fill="none" stroke="#000000" points="534.7924,-36 426.7924,-36 426.7924,0 534.7924,0 534.7924,-36"/>
<text text-anchor="middle" x="480.7924" y="-14.3" font-family="Times,serif" font-size="14.00" fill="#000000">[1, 3, 6, 4, 2, 5]</text>
</g>
<!-- [1, 3, 6, 4, 2, None]&#45;&gt;[1, 3, 6, 4, 2, 5] -->
<g id="edge9" class="edge">
<title>[1, 3, 6, 4, 2, None]&#45;&gt;[1, 3, 6, 4, 2, 5]</title>
<path fill="none" stroke="#000000" d="M480.7924,-71.8314C480.7924,-64.131 480.7924,-54.9743 480.7924,-46.4166"/>
<polygon fill="#000000" stroke="#000000" points="484.2925,-46.4132 480.7924,-36.4133 477.2925,-46.4133 484.2925,-46.4132"/>
</g>
<!-- [1, 4, 2, None, None, None] -->
<g id="node12" class="node">
<title>[1, 4, 2, None, None, None]</title>
<ellipse fill="none" stroke="#000000" cx="922.7924" cy="-234" rx="116.9792" ry="18"/>
<text text-anchor="middle" x="922.7924" y="-230.3" font-family="Times,serif" font-size="14.00" fill="#000000">[1, 4, 2, None, None, None]</text>
</g>
<!-- [1, 4, None, None, None, None]&#45;&gt;[1, 4, 2, None, None, None] -->
<g id="edge11" class="edge">
<title>[1, 4, None, None, None, None]&#45;&gt;[1, 4, 2, None, None, None]</title>
<path fill="none" stroke="#000000" d="M1170.6141,-290.4657C1119.905,-278.9117 1050.712,-263.1462 998.325,-251.21"/>
<polygon fill="#000000" stroke="#000000" points="998.9427,-247.7611 988.415,-248.952 997.3876,-254.5862 998.9427,-247.7611"/>
</g>
<!-- [1, 4, 6, None, None, None] -->
<g id="node16" class="node">
<title>[1, 4, 6, None, None, None]</title>
<ellipse fill="none" stroke="#000000" cx="1238.7924" cy="-234" rx="116.9792" ry="18"/>
<text text-anchor="middle" x="1238.7924" y="-230.3" font-family="Times,serif" font-size="14.00" fill="#000000">[1, 4, 6, None, None, None]</text>
</g>
<!-- [1, 4, None, None, None, None]&#45;&gt;[1, 4, 6, None, None, None] -->
<g id="edge15" class="edge">
<title>[1, 4, None, None, None, None]&#45;&gt;[1, 4, 6, None, None, None]</title>
<path fill="none" stroke="#000000" d="M1238.7924,-287.8314C1238.7924,-280.131 1238.7924,-270.9743 1238.7924,-262.4166"/>
<polygon fill="#000000" stroke="#000000" points="1242.2925,-262.4132 1238.7924,-252.4133 1235.2925,-262.4133 1242.2925,-262.4132"/>
</g>
<!-- [1, 4, 2, 5, None, None] -->
<g id="node13" class="node">
<title>[1, 4, 2, 5, None, None]</title>
<ellipse fill="none" stroke="#000000" cx="701.7924" cy="-162" rx="101.2821" ry="18"/>
<text text-anchor="middle" x="701.7924" y="-158.3" font-family="Times,serif" font-size="14.00" fill="#000000">[1, 4, 2, 5, None, None]</text>
</g>
<!-- [1, 4, 2, None, None, None]&#45;&gt;[1, 4, 2, 5, None, None] -->
<g id="edge12" class="edge">
<title>[1, 4, 2, None, None, None]&#45;&gt;[1, 4, 2, 5, None, None]</title>
<path fill="none" stroke="#000000" d="M872.6441,-217.6621C839.235,-206.7777 795.2086,-192.4342 760.2157,-181.0338"/>
<polygon fill="#000000" stroke="#000000" points="761.1941,-177.6716 750.6017,-177.9017 759.0257,-184.3273 761.1941,-177.6716"/>
</g>
<!-- [1, 4, 2, 6, None, None] -->
<g id="node14" class="node">
<title>[1, 4, 2, 6, None, None]</title>
<ellipse fill="none" stroke="#000000" cx="922.7924" cy="-162" rx="101.2821" ry="18"/>
<text text-anchor="middle" x="922.7924" y="-158.3" font-family="Times,serif" font-size="14.00" fill="#000000">[1, 4, 2, 6, None, None]</text>
</g>
<!-- [1, 4, 2, None, None, None]&#45;&gt;[1, 4, 2, 6, None, None] -->
<g id="edge13" class="edge">
<title>[1, 4, 2, None, None, None]&#45;&gt;[1, 4, 2, 6, None, None]</title>
<path fill="none" stroke="#000000" d="M922.7924,-215.8314C922.7924,-208.131 922.7924,-198.9743 922.7924,-190.4166"/>
<polygon fill="#000000" stroke="#000000" points="926.2925,-190.4132 922.7924,-180.4133 919.2925,-190.4133 926.2925,-190.4132"/>
</g>
<!-- [1, 4, 2, 6, 3, None] -->
<g id="node15" class="node">
<title>[1, 4, 2, 6, 3, None]</title>
<ellipse fill="none" stroke="#000000" cx="922.7924" cy="-90" rx="85.5853" ry="18"/>
<text text-anchor="middle" x="922.7924" y="-86.3" font-family="Times,serif" font-size="14.00" fill="#000000">[1, 4, 2, 6, 3, None]</text>
</g>
<!-- [1, 4, 2, 6, None, None]&#45;&gt;[1, 4, 2, 6, 3, None] -->
<g id="edge14" class="edge">
<title>[1, 4, 2, 6, None, None]&#45;&gt;[1, 4, 2, 6, 3, None]</title>
<path fill="none" stroke="#000000" d="M922.7924,-143.8314C922.7924,-136.131 922.7924,-126.9743 922.7924,-118.4166"/>
<polygon fill="#000000" stroke="#000000" points="926.2925,-118.4132 922.7924,-108.4133 919.2925,-118.4133 926.2925,-118.4132"/>
</g>
<!-- [1, 4, 6, 2, None, None] -->
<g id="node17" class="node">
<title>[1, 4, 6, 2, None, None]</title>
<ellipse fill="none" stroke="#000000" cx="1143.7924" cy="-162" rx="101.2821" ry="18"/>
<text text-anchor="middle" x="1143.7924" y="-158.3" font-family="Times,serif" font-size="14.00" fill="#000000">[1, 4, 6, 2, None, None]</text>
</g>
<!-- [1, 4, 6, None, None, None]&#45;&gt;[1, 4, 6, 2, None, None] -->
<g id="edge16" class="edge">
<title>[1, 4, 6, None, None, None]&#45;&gt;[1, 4, 6, 2, None, None]</title>
<path fill="none" stroke="#000000" d="M1215.3092,-216.2022C1203.2298,-207.0473 1188.3382,-195.761 1175.2766,-185.8617"/>
<polygon fill="#000000" stroke="#000000" points="1177.0892,-182.8439 1167.0054,-179.593 1172.861,-188.4227 1177.0892,-182.8439"/>
</g>
<!-- [1, 4, 6, 3, None, None] -->
<g id="node19" class="node">
<title>[1, 4, 6, 3, None, None]</title>
<ellipse fill="none" stroke="#000000" cx="1364.7924" cy="-162" rx="101.2821" ry="18"/>
<text text-anchor="middle" x="1364.7924" y="-158.3" font-family="Times,serif" font-size="14.00" fill="#000000">[1, 4, 6, 3, None, None]</text>
</g>
<!-- [1, 4, 6, None, None, None]&#45;&gt;[1, 4, 6, 3, None, None] -->
<g id="edge18" class="edge">
<title>[1, 4, 6, None, None, None]&#45;&gt;[1, 4, 6, 3, None, None]</title>
<path fill="none" stroke="#000000" d="M1269.2935,-216.5708C1286.1632,-206.931 1307.3142,-194.8447 1325.4202,-184.4984"/>
<polygon fill="#000000" stroke="#000000" points="1327.6262,-187.269 1334.5722,-179.2687 1324.1532,-181.1913 1327.6262,-187.269"/>
</g>
<!-- [1, 4, 6, 2, 5, None] -->
<g id="node18" class="node">
<title>[1, 4, 6, 2, 5, None]</title>
<ellipse fill="none" stroke="#000000" cx="1143.7924" cy="-90" rx="85.5853" ry="18"/>
<text text-anchor="middle" x="1143.7924" y="-86.3" font-family="Times,serif" font-size="14.00" fill="#000000">[1, 4, 6, 2, 5, None]</text>
</g>
<!-- [1, 4, 6, 2, None, None]&#45;&gt;[1, 4, 6, 2, 5, None] -->
<g id="edge17" class="edge">
<title>[1, 4, 6, 2, None, None]&#45;&gt;[1, 4, 6, 2, 5, None]</title>
<path fill="none" stroke="#000000" d="M1143.7924,-143.8314C1143.7924,-136.131 1143.7924,-126.9743 1143.7924,-118.4166"/>
<polygon fill="#000000" stroke="#000000" points="1147.2925,-118.4132 1143.7924,-108.4133 1140.2925,-118.4133 1147.2925,-118.4132"/>
</g>
<!-- [1, 5, 2, None, None, None] -->
<g id="node21" class="node">
<title>[1, 5, 2, None, None, None]</title>
<ellipse fill="none" stroke="#000000" cx="1585.7924" cy="-234" rx="116.9792" ry="18"/>
<text text-anchor="middle" x="1585.7924" y="-230.3" font-family="Times,serif" font-size="14.00" fill="#000000">[1, 5, 2, None, None, None]</text>
</g>
<!-- [1, 5, None, None, None, None]&#45;&gt;[1, 5, 2, None, None, None] -->
<g id="edge20" class="edge">
<title>[1, 5, None, None, None, None]&#45;&gt;[1, 5, 2, None, None, None]</title>
<path fill="none" stroke="#000000" d="M1561.8673,-287.8314C1565.4026,-279.8771 1569.6284,-270.369 1573.538,-261.5723"/>
<polygon fill="#000000" stroke="#000000" points="1576.7456,-262.9729 1577.6087,-252.4133 1570.3489,-260.1299 1576.7456,-262.9729"/>
</g>
<!-- [1, 5, 2, 4, None, None] -->
<g id="node22" class="node">
<title>[1, 5, 2, 4, None, None]</title>
<ellipse fill="none" stroke="#000000" cx="1585.7924" cy="-162" rx="101.2821" ry="18"/>
<text text-anchor="middle" x="1585.7924" y="-158.3" font-family="Times,serif" font-size="14.00" fill="#000000">[1, 5, 2, 4, None, None]</text>
</g>
<!-- [1, 5, 2, None, None, None]&#45;&gt;[1, 5, 2, 4, None, None] -->
<g id="edge21" class="edge">
<title>[1, 5, 2, None, None, None]&#45;&gt;[1, 5, 2, 4, None, None]</title>
<path fill="none" stroke="#000000" d="M1585.7924,-215.8314C1585.7924,-208.131 1585.7924,-198.9743 1585.7924,-190.4166"/>
<polygon fill="#000000" stroke="#000000" points="1589.2925,-190.4132 1585.7924,-180.4133 1582.2925,-190.4133 1589.2925,-190.4132"/>
</g>
<!-- [1, 5, 2, 6, None, None] -->
<g id="node25" class="node">
<title>[1, 5, 2, 6, None, None]</title>
<ellipse fill="none" stroke="#000000" cx="1806.7924" cy="-162" rx="101.2821" ry="18"/>
<text text-anchor="middle" x="1806.7924" y="-158.3" font-family="Times,serif" font-size="14.00" fill="#000000">[1, 5, 2, 6, None, None]</text>
</g>
<!-- [1, 5, 2, None, None, None]&#45;&gt;[1, 5, 2, 6, None, None] -->
<g id="edge24" class="edge">
<title>[1, 5, 2, None, None, None]&#45;&gt;[1, 5, 2, 6, None, None]</title>
<path fill="none" stroke="#000000" d="M1635.9407,-217.6621C1669.3497,-206.7777 1713.3762,-192.4342 1748.3691,-181.0338"/>
<polygon fill="#000000" stroke="#000000" points="1749.5591,-184.3273 1757.983,-177.9017 1747.3907,-177.6716 1749.5591,-184.3273"/>
</g>
<!-- [1, 5, 2, 4, 6, None] -->
<g id="node23" class="node">
<title>[1, 5, 2, 4, 6, None]</title>
<ellipse fill="none" stroke="#000000" cx="1585.7924" cy="-90" rx="85.5853" ry="18"/>
<text text-anchor="middle" x="1585.7924" y="-86.3" font-family="Times,serif" font-size="14.00" fill="#000000">[1, 5, 2, 4, 6, None]</text>
</g>
<!-- [1, 5, 2, 4, None, None]&#45;&gt;[1, 5, 2, 4, 6, None] -->
<g id="edge22" class="edge">
<title>[1, 5, 2, 4, None, None]&#45;&gt;[1, 5, 2, 4, 6, None]</title>
<path fill="none" stroke="#000000" d="M1585.7924,-143.8314C1585.7924,-136.131 1585.7924,-126.9743 1585.7924,-118.4166"/>
<polygon fill="#000000" stroke="#000000" points="1589.2925,-118.4132 1585.7924,-108.4133 1582.2925,-118.4133 1589.2925,-118.4132"/>
</g>
<!-- [1, 5, 2, 4, 6, 3] -->
<g id="node24" class="node">
<title>[1, 5, 2, 4, 6, 3]</title>
<polygon fill="none" stroke="#000000" points="1639.7924,-36 1531.7924,-36 1531.7924,0 1639.7924,0 1639.7924,-36"/>
<text text-anchor="middle" x="1585.7924" y="-14.3" font-family="Times,serif" font-size="14.00" fill="#000000">[1, 5, 2, 4, 6, 3]</text>
</g>
<!-- [1, 5, 2, 4, 6, None]&#45;&gt;[1, 5, 2, 4, 6, 3] -->
<g id="edge23" class="edge">
<title>[1, 5, 2, 4, 6, None]&#45;&gt;[1, 5, 2, 4, 6, 3]</title>
<path fill="none" stroke="#000000" d="M1585.7924,-71.8314C1585.7924,-64.131 1585.7924,-54.9743 1585.7924,-46.4166"/>
<polygon fill="#000000" stroke="#000000" points="1589.2925,-46.4132 1585.7924,-36.4133 1582.2925,-46.4133 1589.2925,-46.4132"/>
</g>
<!-- [1, 5, 2, 6, 3, None] -->
<g id="node26" class="node">
<title>[1, 5, 2, 6, 3, None]</title>
<ellipse fill="none" stroke="#000000" cx="1791.7924" cy="-90" rx="85.5853" ry="18"/>
<text text-anchor="middle" x="1791.7924" y="-86.3" font-family="Times,serif" font-size="14.00" fill="#000000">[1, 5, 2, 6, 3, None]</text>
</g>
<!-- [1, 5, 2, 6, None, None]&#45;&gt;[1, 5, 2, 6, 3, None] -->
<g id="edge25" class="edge">
<title>[1, 5, 2, 6, None, None]&#45;&gt;[1, 5, 2, 6, 3, None]</title>
<path fill="none" stroke="#000000" d="M1803.0073,-143.8314C1801.403,-136.131 1799.4954,-126.9743 1797.7125,-118.4166"/>
<polygon fill="#000000" stroke="#000000" points="1801.0945,-117.4892 1795.6285,-108.4133 1794.2417,-118.9169 1801.0945,-117.4892"/>
</g>
<!-- [1, 5, 2, 6, 4, None] -->
<g id="node27" class="node">
<title>[1, 5, 2, 6, 4, None]</title>
<ellipse fill="none" stroke="#000000" cx="1981.7924" cy="-90" rx="85.5853" ry="18"/>
<text text-anchor="middle" x="1981.7924" y="-86.3" font-family="Times,serif" font-size="14.00" fill="#000000">[1, 5, 2, 6, 4, None]</text>
</g>
<!-- [1, 5, 2, 6, None, None]&#45;&gt;[1, 5, 2, 6, 4, None] -->
<g id="edge26" class="edge">
<title>[1, 5, 2, 6, None, None]&#45;&gt;[1, 5, 2, 6, 4, None]</title>
<path fill="none" stroke="#000000" d="M1847.3808,-145.3008C1873.0319,-134.7472 1906.3198,-121.0516 1933.3505,-109.9304"/>
<polygon fill="#000000" stroke="#000000" points="1934.7118,-113.155 1942.6279,-106.1134 1932.0483,-106.6815 1934.7118,-113.155"/>
</g>
<!-- [1, 6, 2, None, None, None] -->
<g id="node29" class="node">
<title>[1, 6, 2, None, None, None]</title>
<ellipse fill="none" stroke="#000000" cx="2027.7924" cy="-234" rx="116.9792" ry="18"/>
<text text-anchor="middle" x="2027.7924" y="-230.3" font-family="Times,serif" font-size="14.00" fill="#000000">[1, 6, 2, None, None, None]</text>
</g>
<!-- [1, 6, None, None, None, None]&#45;&gt;[1, 6, 2, None, None, None] -->
<g id="edge28" class="edge">
<title>[1, 6, None, None, None, None]&#45;&gt;[1, 6, 2, None, None, None]</title>
<path fill="none" stroke="#000000" d="M2122.9693,-288.3868C2106.2182,-278.8147 2085.3184,-266.872 2067.374,-256.6181"/>
<polygon fill="#000000" stroke="#000000" points="2068.7162,-253.3539 2058.2972,-251.4313 2065.2432,-259.4316 2068.7162,-253.3539"/>
</g>
<!-- [1, 6, 3, None, None, None] -->
<g id="node32" class="node">
<title>[1, 6, 3, None, None, None]</title>
<ellipse fill="none" stroke="#000000" cx="2279.7924" cy="-234" rx="116.9792" ry="18"/>
<text text-anchor="middle" x="2279.7924" y="-230.3" font-family="Times,serif" font-size="14.00" fill="#000000">[1, 6, 3, None, None, None]</text>
</g>
<!-- [1, 6, None, None, None, None]&#45;&gt;[1, 6, 3, None, None, None] -->
<g id="edge31" class="edge">
<title>[1, 6, None, None, None, None]&#45;&gt;[1, 6, 3, None, None, None]</title>
<path fill="none" stroke="#000000" d="M2184.6155,-288.3868C2201.3666,-278.8147 2222.2664,-266.872 2240.2108,-256.6181"/>
<polygon fill="#000000" stroke="#000000" points="2242.3416,-259.4316 2249.2875,-251.4313 2238.8686,-253.3539 2242.3416,-259.4316"/>
</g>
<!-- [1, 6, 4, None, None, None] -->
<g id="node33" class="node">
<title>[1, 6, 4, None, None, None]</title>
<ellipse fill="none" stroke="#000000" cx="2531.7924" cy="-234" rx="116.9792" ry="18"/>
<text text-anchor="middle" x="2531.7924" y="-230.3" font-family="Times,serif" font-size="14.00" fill="#000000">[1, 6, 4, None, None, None]</text>
</g>
<!-- [1, 6, None, None, None, None]&#45;&gt;[1, 6, 4, None, None, None] -->
<g id="edge32" class="edge">
<title>[1, 6, None, None, None, None]&#45;&gt;[1, 6, 4, None, None, None]</title>
<path fill="none" stroke="#000000" d="M2231.1985,-291.256C2294.2438,-279.2474 2383.0994,-262.3225 2447.8473,-249.9895"/>
<polygon fill="#000000" stroke="#000000" points="2448.8558,-253.3605 2458.0243,-248.0511 2447.546,-246.4841 2448.8558,-253.3605"/>
</g>
<!-- [1, 6, 2, 4, None, None] -->
<g id="node30" class="node">
<title>[1, 6, 2, 4, None, None]</title>
<ellipse fill="none" stroke="#000000" cx="2027.7924" cy="-162" rx="101.2821" ry="18"/>
<text text-anchor="middle" x="2027.7924" y="-158.3" font-family="Times,serif" font-size="14.00" fill="#000000">[1, 6, 2, 4, None, None]</text>
</g>
<!-- [1, 6, 2, None, None, None]&#45;&gt;[1, 6, 2, 4, None, None] -->
<g id="edge29" class="edge">
<title>[1, 6, 2, None, None, None]&#45;&gt;[1, 6, 2, 4, None, None]</title>
<path fill="none" stroke="#000000" d="M2027.7924,-215.8314C2027.7924,-208.131 2027.7924,-198.9743 2027.7924,-190.4166"/>
<polygon fill="#000000" stroke="#000000" points="2031.2925,-190.4132 2027.7924,-180.4133 2024.2925,-190.4133 2031.2925,-190.4132"/>
</g>
<!-- [1, 6, 2, 5, None, None] -->
<g id="node31" class="node">
<title>[1, 6, 2, 5, None, None]</title>
<ellipse fill="none" stroke="#000000" cx="2248.7924" cy="-162" rx="101.2821" ry="18"/>
<text text-anchor="middle" x="2248.7924" y="-158.3" font-family="Times,serif" font-size="14.00" fill="#000000">[1, 6, 2, 5, None, None]</text>
</g>
<!-- [1, 6, 2, None, None, None]&#45;&gt;[1, 6, 2, 5, None, None] -->
<g id="edge30" class="edge">
<title>[1, 6, 2, None, None, None]&#45;&gt;[1, 6, 2, 5, None, None]</title>
<path fill="none" stroke="#000000" d="M2077.9407,-217.6621C2111.3497,-206.7777 2155.3762,-192.4342 2190.3691,-181.0338"/>
<polygon fill="#000000" stroke="#000000" points="2191.5591,-184.3273 2199.983,-177.9017 2189.3907,-177.6716 2191.5591,-184.3273"/>
</g>
<!-- [1, 6, 4, 2, None, None] -->
<g id="node34" class="node">
<title>[1, 6, 4, 2, None, None]</title>
<ellipse fill="none" stroke="#000000" cx="2531.7924" cy="-162" rx="101.2821" ry="18"/>
<text text-anchor="middle" x="2531.7924" y="-158.3" font-family="Times,serif" font-size="14.00" fill="#000000">[1, 6, 4, 2, None, None]</text>
</g>
<!-- [1, 6, 4, None, None, None]&#45;&gt;[1, 6, 4, 2, None, None] -->
<g id="edge33" class="edge">
<title>[1, 6, 4, None, None, None]&#45;&gt;[1, 6, 4, 2, None, None]</title>
<path fill="none" stroke="#000000" d="M2531.7924,-215.8314C2531.7924,-208.131 2531.7924,-198.9743 2531.7924,-190.4166"/>
<polygon fill="#000000" stroke="#000000" points="2535.2925,-190.4132 2531.7924,-180.4133 2528.2925,-190.4133 2535.2925,-190.4132"/>
</g>
<!-- [1, 6, 4, 2, 5, None] -->
<g id="node35" class="node">
<title>[1, 6, 4, 2, 5, None]</title>
<ellipse fill="none" stroke="#000000" cx="2531.7924" cy="-90" rx="85.5853" ry="18"/>
<text text-anchor="middle" x="2531.7924" y="-86.3" font-family="Times,serif" font-size="14.00" fill="#000000">[1, 6, 4, 2, 5, None]</text>
</g>
<!-- [1, 6, 4, 2, None, None]&#45;&gt;[1, 6, 4, 2, 5, None] -->
<g id="edge34" class="edge">
<title>[1, 6, 4, 2, None, None]&#45;&gt;[1, 6, 4, 2, 5, None]</title>
<path fill="none" stroke="#000000" d="M2531.7924,-143.8314C2531.7924,-136.131 2531.7924,-126.9743 2531.7924,-118.4166"/>
<polygon fill="#000000" stroke="#000000" points="2535.2925,-118.4132 2531.7924,-108.4133 2528.2925,-118.4133 2535.2925,-118.4132"/>
</g>
</g>
</svg>
